<svg width="27" height="32" viewBox="0 0 27 32" fill="none" xmlns="http://www.w3.org/2000/svg">
<path d="M13.4345 9.40829L13.4343 9.40827C13.137 9.37134 12.9208 9.10049 12.9587 8.80479C12.9932 8.50773 13.2728 8.3 13.5691 8.33679M13.4345 9.40829L13.7298 6.97757L19.7373 8.87113L19.2305 9.03185L13.5691 8.33679M13.4345 9.40829L16.7471 9.81399M13.4345 9.40829L16.7471 9.81399M13.5691 8.33679L13.5568 8.43603L13.5689 8.33677L13.5691 8.33679ZM26.1 3.10391C26.1036 1.76565 24.9936 0.68125 23.6331 0.68125H3.3703C2.00973 0.68125 0.9 1.76564 0.9 3.10364V25.9837C0.9 26.1291 0.959366 26.2659 1.06074 26.3652L6.53067 31.7246C6.63227 31.8241 6.7745 31.8813 6.91716 31.8813H23.6297C24.9903 31.8813 26.1 30.7969 26.1 29.4589V3.10391ZM26.1 3.10391L26 3.10364H26.1V3.10391ZM16.7471 9.81399L13.7298 10.7641M16.7471 9.81399L13.7298 10.7641M13.7298 10.7641C13.7298 10.7641 13.7298 10.7641 13.7298 10.7641C13.5773 10.8119 13.4296 10.8119 13.2771 10.7641M13.7298 10.7641H13.2771M13.2771 10.7641L7.27045 8.87084L13.2771 6.97757L13.2771 10.7641ZM20.9799 8.13169L20.9798 8.13167L14.0652 5.95427C14.0651 5.95426 14.0651 5.95426 14.0651 5.95425C13.6945 5.83678 13.3157 5.83687 12.942 5.95419L12.9419 5.95422L6.0273 8.13159C6.02728 8.1316 6.02725 8.13161 6.02723 8.13162C5.67894 8.2404 5.44107 8.52743 5.44107 8.87422C5.44107 9.21802 5.67928 9.50443 6.02637 9.61654L6.02708 9.61677L8.61295 10.4307V12.8449C8.61295 13.3214 8.8931 13.7281 9.33572 13.9082C10.5952 14.4215 12.2661 14.7684 13.5052 14.7684L13.5054 14.7684C14.7407 14.765 16.415 14.4182 17.6709 13.9083C18.1178 13.728 18.3939 13.3174 18.3939 12.8449V10.4308L18.882 10.2777V11.4462C18.7649 11.5746 18.6893 11.7452 18.6893 11.9314C18.6893 12.0948 18.7449 12.2468 18.8391 12.3695C18.745 12.4913 18.6893 12.6414 18.6893 12.8078V14.1358C18.6893 14.3454 18.8641 14.5088 19.068 14.5088H19.7904C19.9993 14.5088 20.1691 14.3405 20.1691 14.1358V12.8078C20.1691 12.6444 20.1135 12.4924 20.0193 12.3697C20.1134 12.2479 20.1691 12.0978 20.1691 11.9314C20.1691 11.7441 20.0977 11.5723 19.9764 11.4447V9.93179L20.9761 9.61684C20.9762 9.61681 20.9763 9.61679 20.9764 9.61676C21.3246 9.50795 21.5624 9.22094 21.5624 8.87422C21.5624 8.52765 21.3247 8.24057 20.9799 8.13169ZM9.70396 12.8415V10.77L12.9385 11.7875L12.9391 11.7877C13.1226 11.8441 13.3114 11.8764 13.4983 11.8764C13.6873 11.8764 13.8731 11.8478 14.0586 11.7873C14.0588 11.7873 14.0589 11.7872 14.0591 11.7872L17.2926 10.77V12.8415V12.8686C17.2907 12.875 17.2882 12.8798 17.2856 12.8835C17.2801 12.8915 17.2696 12.9016 17.2477 12.9109C16.1092 13.375 14.6017 13.6886 13.5017 13.6886C12.4015 13.6853 10.8907 13.3716 9.75224 12.9109C9.73036 12.9016 9.71985 12.8915 9.71438 12.8835C9.70908 12.8758 9.70396 12.8634 9.70396 12.8415ZM6.36993 27.8679V30.0467L2.77584 26.5253H4.99752C5.75612 26.5253 6.36993 27.1296 6.36993 27.8679ZM25.0055 29.4622C25.0055 30.2006 24.3917 30.8049 23.6331 30.8049H7.46782V27.8679C7.46782 26.5299 6.35809 25.4455 4.99752 25.4455H1.99789V3.10364C1.99789 2.3653 2.61171 1.76099 3.3703 1.76099H23.6331C24.3917 1.76099 25.0055 2.36531 25.0055 3.10364V29.4622ZM20.8706 18.6413C21.1716 18.6413 21.4179 18.4029 21.4179 18.1031L20.8672 17.6649V17.5649H20.8666H6.13279C5.8318 17.5649 5.58556 17.8033 5.58556 18.1031C5.58556 18.4029 5.8318 18.6413 6.13279 18.6413H20.8706ZM20.8706 22.6692C21.1716 22.6692 21.4179 22.4309 21.4179 22.131C21.4179 21.8307 21.1711 21.5929 20.8672 21.5929H6.13279C5.8318 21.5929 5.58556 21.8312 5.58556 22.131C5.58556 22.4309 5.8318 22.6692 6.13279 22.6692H20.8706ZM20.8706 26.6972C21.1716 26.6972 21.4179 26.4588 21.4179 26.159C21.4179 25.8591 21.1716 25.6208 20.8706 25.6208H11.7128C11.4118 25.6208 11.1656 25.8591 11.1656 26.159C11.1656 26.4588 11.4118 26.6972 11.7128 26.6972H20.8706ZM13.2772 6.97753C13.4296 6.92976 13.5772 6.92976 13.7297 6.97753H13.2772Z" fill="white" stroke="white" stroke-width="0.2"/>
</svg>
