<svg width="84" height="84" viewBox="0 0 84 84" fill="none" xmlns="http://www.w3.org/2000/svg">
<path d="M76.2122 31.4271C76.6932 32.784 77.9915 33.76 79.4995 33.76C81.4233 33.76 83 32.189 83 30.2479C83 28.3068 81.4342 26.7358 79.4995 26.7358C77.9807 26.7358 76.6933 27.7118 76.2122 29.0687H64.2892V26.7285H67.7789C68.4263 26.7285 68.9542 26.1988 68.9542 25.5493C68.9542 24.8999 68.4262 24.3702 67.7789 24.3702H64.2892V22.0372C64.2892 20.8036 63.2912 19.7985 62.0579 19.7985H59.6134V17.4873H62.1954C62.6945 18.8152 63.9747 19.7731 65.4718 19.7731C67.3957 19.7731 68.9724 18.202 68.9724 16.2609C68.9724 14.3198 67.4065 12.7488 65.4718 12.7488C63.9349 12.7488 62.6403 13.7429 62.1665 15.1253H58.4454C57.7981 15.1253 57.2701 15.655 57.2701 16.3045V19.7876H54.9268V12.9047H58.4635C59.1109 12.9047 59.6388 12.375 59.6388 11.7256V7.95575C60.9624 7.45504 61.917 6.1706 61.917 4.66848C61.917 2.73825 60.3512 1.15633 58.4165 1.15633C56.4818 1.15633 54.916 2.72738 54.916 4.66848C54.916 6.21054 55.9068 7.50944 57.2847 7.98473V10.5499H53.7479C53.1006 10.5499 52.5727 11.0796 52.5727 11.7291V19.7839H50.2294V16.4496C50.2294 15.8001 49.7014 15.2704 49.0541 15.2704C48.4068 15.2704 47.8788 15.8001 47.8788 16.4496V19.7839H44.3421C43.6948 19.7839 43.1668 20.3136 43.1668 20.9631C43.1668 21.6125 43.6948 22.1423 44.3421 22.1423H61.9429V48.0375H44.3421C43.6948 48.0375 43.1668 48.5672 43.1668 49.2166C43.1668 49.8661 43.6948 50.3958 44.3421 50.3958H47.8608V58.4688C47.8608 59.1182 48.3888 59.6479 49.0361 59.6479H52.5439V64.5715C51.1914 65.0541 50.2186 66.3567 50.2186 67.8697C50.2186 69.7999 51.7845 71.3818 53.7192 71.3818C55.6538 71.3818 57.2197 69.8108 57.2197 67.8697C57.2197 66.3458 56.2469 65.0542 54.8944 64.5715V58.4688C54.8944 57.8193 54.3664 57.2896 53.7192 57.2896H50.2113V50.3958H52.5546V53.879C52.5546 54.5284 53.0826 55.0581 53.7299 55.0581C54.3772 55.0581 54.9052 54.5284 54.9052 53.879V50.3958H57.2485V53.7302C57.2485 54.3796 57.7765 54.9093 58.4237 54.9093H61.9134V59.8583C60.561 60.3409 59.5882 61.6435 59.5882 63.1564C59.5882 65.0867 61.154 66.6686 63.0887 66.6686C65.0234 66.6686 66.5892 65.0975 66.5892 63.1564C66.5892 61.6326 65.6164 60.3409 64.264 59.8583V53.7265C64.264 53.077 63.736 52.5473 63.0887 52.5473H59.599V50.3921H62.0617C63.2913 50.3921 64.293 49.3907 64.293 48.1534V45.5338H68.9508V48.2478C67.5983 48.7303 66.6255 50.0329 66.6255 51.5459C66.6255 53.4761 68.1914 55.058 70.126 55.058C72.0607 55.058 73.6266 53.487 73.6266 51.5459C73.6266 50.022 72.6538 48.7304 71.3013 48.2478V44.3546C71.3013 43.7051 70.7733 43.1754 70.126 43.1754H64.2929V40.8244H67.7826C68.43 40.8244 68.9579 40.2946 68.9579 39.6452C68.9579 38.9958 68.4299 38.466 67.7826 38.466H64.2929V36.1149H69.627L73.3589 39.9247C73.1926 40.3347 73.0986 40.781 73.0986 41.2454C73.0986 43.1756 74.6644 44.7575 76.5991 44.7575C78.5338 44.7575 80.0996 43.1865 80.0996 41.2454C80.0996 39.3043 78.5338 37.7333 76.5991 37.7333C75.9988 37.7333 75.4238 37.8929 74.9247 38.1614L70.9613 34.1122C70.7407 33.8909 70.4442 33.7603 70.1296 33.7603H64.3073V31.4092H76.2303L76.2122 31.4271ZM79.5067 29.0977C80.1468 29.0977 80.6531 29.6166 80.6531 30.2479C80.6531 30.8792 80.136 31.3981 79.5067 31.3981C78.8775 31.3981 78.3603 30.8792 78.3603 30.2479C78.3603 29.6166 78.8774 29.0977 79.5067 29.0977ZM65.472 15.1177C66.1121 15.1177 66.6184 15.6365 66.6184 16.2679C66.6184 16.8992 66.1013 17.4181 65.472 17.4181C64.8427 17.4181 64.3256 16.8992 64.3256 16.2679C64.3256 15.6365 64.8427 15.1177 65.472 15.1177ZM58.4094 3.54337C59.0495 3.54337 59.5558 4.06221 59.5558 4.69356C59.5558 5.3249 59.0386 5.84374 58.4094 5.84374C57.7802 5.84374 57.263 5.3249 57.263 4.69356C57.263 4.06221 57.7801 3.54337 58.4094 3.54337ZM53.7155 69.038C53.0754 69.038 52.5691 68.5191 52.5691 67.8878C52.5691 67.2565 53.0862 66.7376 53.7155 66.7376C54.3447 66.7376 54.8618 67.2564 54.8618 67.8878C54.8618 68.5191 54.3447 69.038 53.7155 69.038ZM63.0852 64.3285C62.4451 64.3285 61.9388 63.8096 61.9388 63.1783C61.9388 62.5469 62.4559 62.0281 63.0852 62.0281C63.7144 62.0281 64.2316 62.5469 64.2316 63.1783C64.2316 63.8096 63.7144 64.3285 63.0852 64.3285ZM70.1189 52.7179C69.4788 52.7179 68.9725 52.1991 68.9725 51.5677C68.9725 50.9364 69.4897 50.4175 70.1189 50.4175C70.7482 50.4175 71.2653 50.9364 71.2653 51.5677C71.2653 52.1991 70.7482 52.7179 70.1189 52.7179ZM77.7385 41.2671C77.7385 41.9094 77.2213 42.4173 76.5921 42.4173C75.9629 42.4173 75.4457 41.8985 75.4457 41.2671C75.4457 40.6358 75.9628 40.1169 76.5921 40.1169C77.2213 40.1169 77.7385 40.6358 77.7385 41.2671ZM43.1702 44.5253C43.1702 43.8759 43.6982 43.3462 44.3454 43.3462H57.259V34.9866C57.259 34.3371 57.787 33.8074 58.4343 33.8074C59.0816 33.8074 59.6096 34.3371 59.6096 34.9866V43.4659C59.6096 44.6995 58.6115 45.7046 57.3783 45.7046H44.3453C43.6979 45.7046 43.1702 45.1748 43.1702 44.5253ZM59.6137 30.0335C59.6137 30.683 59.0858 31.2127 58.4385 31.2127C57.7912 31.2127 57.2632 30.683 57.2632 30.0335V26.866H44.3496C43.7023 26.866 43.1743 26.3362 43.1743 25.6868C43.1743 25.0373 43.7023 24.5076 44.3496 24.5076H57.3826C58.6121 24.5076 59.6139 25.509 59.6139 26.7463L59.6137 30.0335ZM24.4705 36.8438C24.4705 38.774 26.0364 40.3559 27.9711 40.3559C29.4899 40.3559 30.7773 39.3799 31.2583 38.023H44.3561C45.0034 38.023 45.5314 37.4932 45.5314 36.8438C45.5314 36.1943 45.0034 35.6646 44.3561 35.6646H31.2583C30.7773 34.3077 29.479 33.3317 27.9711 33.3317C26.0472 33.3317 24.4705 34.9027 24.4705 36.8438ZM27.9602 35.6936C28.6003 35.6936 29.1066 36.2125 29.1066 36.8438C29.1066 37.4751 28.5895 37.994 27.9602 37.994C27.331 37.994 26.8138 37.4751 26.8138 36.8438C26.8138 36.2125 27.331 35.6936 27.9602 35.6936ZM31.0232 22.1492C29.0994 22.1492 27.5227 23.7203 27.5227 25.6614C27.5227 27.6025 29.0886 29.1735 31.0232 29.1735C31.5404 29.1735 32.0321 29.0538 32.477 28.847L36.5128 32.9723C36.7334 33.1936 37.0299 33.3243 37.3445 33.3243H44.3421C44.9894 33.3243 45.5173 32.7945 45.5173 32.1451C45.5173 31.4956 44.9893 30.9659 44.3421 30.9659H37.8328L34.1477 27.1961C34.3792 26.7317 34.5094 26.2129 34.5094 25.6541C34.5094 23.7238 32.9435 22.1419 31.0088 22.1419L31.0232 22.1492ZM29.866 25.6505C29.866 25.0083 30.3831 24.5003 31.0124 24.5003C31.6416 24.5003 32.1588 25.0191 32.1588 25.6505C32.1588 26.2818 31.6417 26.8007 31.0124 26.8007C30.3832 26.8007 29.866 26.2818 29.866 25.6505ZM55.7441 73.8017H27.7867V71.0043C27.7867 69.778 27.2588 68.6169 26.333 67.8259C25.4181 67.035 24.203 66.683 23.0097 66.8608L14.6415 68.0944C13.5494 68.2613 12.4392 67.9347 11.5966 67.2018C10.754 66.4689 10.273 65.4167 10.273 64.3028V54.5862C10.273 53.3417 9.78118 52.1697 8.90239 51.2989C8.02363 50.4353 6.8556 49.9601 5.62599 49.9782C4.8304 49.9782 4.13606 49.5863 3.70937 48.9187C3.28264 48.2402 3.23563 47.4311 3.57919 46.7091L7.16294 39.1659C7.43054 38.5817 7.58966 37.9323 7.60774 37.261V37.232L7.67284 31.6879C7.67284 16.1186 20.1522 3.41297 35.4821 3.36931H35.5653C40.5739 3.36931 45.4701 4.70815 49.7194 7.22253C50.2763 7.55633 50.9959 7.37129 51.3286 6.80527C51.6613 6.24652 51.4769 5.52449 50.9128 5.19066C46.302 2.45132 40.9894 1 35.5653 1H35.4713C18.8435 1.04717 5.31894 14.8128 5.31894 31.663L5.25385 37.1816C5.243 37.5263 5.15982 37.8601 5.03325 38.1468L1.4495 45.6791C0.766021 47.1268 0.867273 48.8104 1.7171 50.1564C2.57054 51.5134 4.03153 52.3116 5.6408 52.3116C6.24111 52.3007 6.81607 52.5257 7.24285 52.9538C7.6768 53.382 7.91909 53.9552 7.91909 54.5685V64.2851C7.91909 66.0883 8.69659 67.7864 10.0563 68.9656C11.4161 70.1375 13.2134 70.6636 14.9817 70.3952L23.3607 69.1616C23.8778 69.089 24.4058 69.2342 24.8144 69.5789C25.2231 69.9308 25.4545 70.4351 25.4545 70.9721V73.7695C22.9195 73.7695 20.8545 75.8413 20.8545 78.3848C20.8545 80.9282 22.9195 83 25.4545 83H55.7624C58.2974 83 60.3624 80.9282 60.3624 78.3848C60.3624 75.8413 58.2974 73.7695 55.7624 73.7695L55.7441 73.8017ZM55.7441 80.6847H25.4362C24.1959 80.6847 23.1869 79.6724 23.1869 78.4278C23.1869 77.1834 24.1958 76.171 25.4362 76.171H55.7441C56.9844 76.171 57.9934 77.1833 57.9934 78.4278C57.9934 79.6723 56.9845 80.6847 55.7441 80.6847Z" fill="#172052" stroke="#172052" stroke-width="1.5"/>
</svg>
