<svg width="33" height="30" viewBox="0 0 33 30" fill="none" xmlns="http://www.w3.org/2000/svg">
<path d="M32.6996 12.2697L29.1315 9.50665L27.6332 8.34124L17.056 0.157137C17.056 0.157137 17.0306 0.157137 17.0052 0.130947C16.9544 0.0916632 16.9036 0.0785684 16.8401 0.0523789C16.7894 0.0261895 16.7386 0.0130947 16.6878 0H16.5227H16.3576C16.3068 0 16.256 0.0392842 16.2053 0.0523789C16.1545 0.0785684 16.091 0.0916632 16.0402 0.130947C16.0275 0.130947 16.0148 0.130947 15.9894 0.157137L4.16763 9.29705L3.91367 9.49347L0.345604 12.2565C-0.0353299 12.5577 -0.111517 13.1076 0.167835 13.5005C0.459885 13.8933 0.993173 13.9719 1.37415 13.6838L3.90103 11.7327V29.1096C3.90103 29.6072 4.28197 30 4.76448 30H28.23C28.7126 30 29.0935 29.6072 29.0935 29.1096V11.7327L31.6204 13.6838C32.0013 13.985 32.5473 13.8933 32.8267 13.5005C33.1187 13.1077 33.0299 12.5446 32.6489 12.2565L32.6996 12.2697ZM13.4879 17.9006H19.5829V28.2193H13.4879V17.9006ZM27.8236 28.2193H21.3224V17.0102C21.3224 16.5126 20.9414 16.1197 20.4589 16.1197H12.637C12.5228 16.1197 12.4085 16.1459 12.2942 16.1852C11.9895 16.3161 11.7609 16.6435 11.7609 17.0102V28.2193H5.66595V10.3975L16.5353 1.99084L27.4046 10.3975V28.2193L27.8236 28.2193Z" fill="white"/>
</svg>
