<svg width="108" height="74" viewBox="0 0 108 74" fill="none" xmlns="http://www.w3.org/2000/svg">
<path d="M32.2943 16.1467C37.7915 16.1467 42.3327 20.7486 42.3327 26.3192C42.3327 29.9523 40.4206 33.3431 37.3135 35.0385C42.8107 36.9761 46.6349 42.0624 47.3519 48.1174C47.5909 49.8129 44.2448 49.8129 44.2448 48.3596C43.7668 42.3046 38.5086 37.4605 32.2943 37.4605C26.0801 37.4605 21.0609 42.3046 20.3439 48.3596C20.1048 50.0551 16.9977 49.8129 17.2367 48.1174C17.7148 42.0624 21.7779 36.9761 27.2751 35.0385C24.407 33.3431 22.2559 29.9523 22.2559 26.3192C22.2559 20.7486 26.7971 16.1467 32.2943 16.1467ZM32.2943 19.2954C28.4702 19.2954 25.3631 22.444 25.3631 26.3192C25.3631 30.1945 28.4702 33.3431 32.2943 33.3431C36.1185 33.3431 39.2256 30.1945 39.2256 26.3192C39.2256 22.444 36.1185 19.2954 32.2943 19.2954Z" fill="#172052"/>
<path d="M24.0726 0.00285133C19.5271 0.0533098 14.6747 0.822802 9.63747 2.66038H9.63327C9.55758 2.69402 9.48609 2.72766 9.41882 2.76971C9.39779 2.77812 9.37677 2.79073 9.35574 2.79914C8.98992 3.0178 8.72081 3.36679 8.59887 3.77467C8.59046 3.80831 8.58205 3.84195 8.57785 3.87559C8.55262 3.98071 8.54 4.08583 8.5358 4.19516C8.5358 4.21198 8.53159 4.2246 8.53159 4.23721V5.33885L4.66736 5.34305C2.115 5.34305 0 7.45805 0 10.0104V69.3452C0 71.8976 2.115 74 4.66736 74H53.7759H53.8222H53.8306H53.8264H53.8853H102.985C105.538 74 107.644 71.8976 107.644 69.3452V10.0104C107.644 7.45805 105.538 5.34305 102.985 5.34305H99.1252V4.32127C99.1462 3.85032 98.9696 3.38778 98.6332 3.05558C98.4608 2.88318 98.2506 2.74862 98.0193 2.66032C91.8172 0.398059 85.8964 -0.241027 80.4894 0.0785698C67.1597 0.869091 57.0218 7.44976 53.8258 9.77499C50.63 7.44965 40.4919 0.864914 27.1665 0.0785698C26.1531 0.0197011 25.1197 -0.00976247 24.0726 0.00285133ZM24.1693 3.35835C38.5377 3.20698 49.525 10.7463 52.1483 12.7142V69.0425C47.809 66.1916 38.6755 61.1836 27.1715 60.5066C22.4242 60.2249 17.2817 60.6832 11.8989 62.3315L11.8947 5.43159C16.1669 4.00616 20.2877 3.40485 24.1684 3.36276L24.1693 3.35835ZM83.4869 3.35835C87.3639 3.4004 91.493 4.0017 95.7606 5.42717V62.3314C90.3825 60.6831 85.2358 60.2248 80.4879 60.5065C68.9829 61.1877 59.846 66.1914 55.5068 69.0424V12.7184C58.1265 10.7505 69.1142 3.2112 83.4858 3.36255L83.4869 3.35835ZM4.66627 8.7112H8.5305V64.6649C8.5305 64.6817 8.53471 64.7027 8.53471 64.7196C8.53891 64.8289 8.55573 64.934 8.57675 65.0391C8.58516 65.0728 8.59357 65.1064 8.60198 65.1401C8.61039 65.1779 8.6188 65.2115 8.62721 65.2452C8.65244 65.3082 8.68608 65.3713 8.71972 65.4302C8.73654 65.4638 8.75336 65.4975 8.77018 65.5311C8.82905 65.6278 8.89633 65.7203 8.97201 65.8002C8.98883 65.8212 9.00565 65.8423 9.02667 65.8633C9.2243 66.0609 9.46819 66.2039 9.73309 66.2796C9.77514 66.288 9.81299 66.2964 9.85083 66.3048C9.94755 66.3258 10.0485 66.3427 10.1494 66.3469C10.1662 66.3511 10.1872 66.3511 10.204 66.3511C10.2629 66.3511 10.3218 66.3511 10.3806 66.3427C10.4143 66.3384 10.4479 66.3342 10.4858 66.3258C10.5741 66.3132 10.6624 66.2922 10.7507 66.2628C10.7633 66.2586 10.7759 66.2586 10.7885 66.2544C27.1247 60.296 41.4457 66.5361 48.3587 70.6358H4.66568C3.92142 70.6358 3.36221 70.0934 3.36221 69.3449V10.0101C3.36221 9.26165 3.92205 8.7112 4.66627 8.7112ZM99.1245 8.7112H102.984C103.729 8.7112 104.275 9.26623 104.275 10.0105V69.3453C104.275 70.0937 103.729 70.6362 102.984 70.6362H59.3001C66.2088 66.5364 80.5309 60.2963 96.866 66.2547C96.8954 66.2631 96.929 66.2715 96.9585 66.2799H96.9627C97.0005 66.2883 97.0384 66.2967 97.0804 66.3052C97.1729 66.3262 97.2739 66.3388 97.3706 66.343H97.379C97.4 66.3472 97.4252 66.3514 97.4462 66.3556C97.4967 66.3556 97.5514 66.3514 97.6018 66.3472C97.6523 66.343 97.7027 66.3346 97.7574 66.3262C97.8205 66.3136 97.8836 66.2967 97.9466 66.2757C97.9677 66.2673 97.9887 66.2631 98.0097 66.2547C98.098 66.2211 98.1779 66.1832 98.2578 66.137C98.262 66.137 98.2662 66.1328 98.2704 66.1328C98.2956 66.1201 98.3167 66.1117 98.3377 66.0991C98.426 66.0402 98.5143 65.973 98.5942 65.9015C98.6152 65.8763 98.6404 65.851 98.6657 65.8258C98.7245 65.7627 98.7834 65.6955 98.8339 65.6198C98.8465 65.5987 98.8633 65.5735 98.8759 65.5525C98.9306 65.4642 98.9768 65.3717 99.0147 65.2708C99.0189 65.2623 99.0231 65.2539 99.0273 65.2455C99.0777 65.1068 99.1072 64.9638 99.1198 64.8208C99.1282 64.7325 99.1282 64.6484 99.124 64.5643L99.1245 8.7112Z" fill="#172052"/>
<path fill-rule="evenodd" clip-rule="evenodd" d="M75.1806 21.5535H77.6736C78.1745 21.5535 78.5803 21.9772 78.5803 22.5V32.0625C78.5803 32.5853 78.1745 33.0089 77.6736 33.0089C77.1728 33.0089 76.767 32.5853 76.767 32.0625V23.4451H75.8788V44.7487C75.8788 44.9444 75.8221 45.126 75.7246 45.2779L73.7139 49.0317C73.4709 49.4862 72.9219 49.651 72.4865 49.3974C72.3298 49.3059 72.2102 49.1746 72.1312 49.0227L70.0872 45.206C70.0107 45.0605 69.9737 44.9034 69.9712 44.7476L69.9688 22.4976C69.9688 22.0494 70.2673 21.6734 70.6682 21.5769V19.5796C70.6682 18.9306 70.9223 18.3409 71.3306 17.9146C71.7389 17.4884 72.3039 17.2231 72.9256 17.2231C73.5449 17.2231 74.1074 17.4884 74.5194 17.9159C74.929 18.3409 75.1831 18.9306 75.1831 19.5796V21.5524L75.1806 21.5535ZM71.7808 43.8035H74.0654V23.4464H71.7808V43.8035Z" fill="#172052"/>
</svg>
