<svg width="30" height="30" viewBox="0 0 30 30" fill="none" xmlns="http://www.w3.org/2000/svg">
<g opacity="0.9">
<path d="M23.1875 23.75C22.8979 25.1764 21.6368 26.25 20.125 26.25H8.875C7.14911 26.25 5.75 24.8509 5.75 23.125V14.375C5.75 12.8632 6.8236 11.6021 8.25 11.3125V10C8.25 6.54822 11.0482 3.75 14.5 3.75C17.9518 3.75 20.75 6.54822 20.75 10V11.3125C22.1764 11.6021 23.25 12.8632 23.25 14.375V16.25H25.125C26.8509 16.25 28.25 17.6491 28.25 19.375V20.625C28.25 22.3509 26.8509 23.75 25.125 23.75H23.1875ZM21.8933 23.75H16.375C14.6491 23.75 13.25 22.3509 13.25 20.625V19.375C13.25 17.6491 14.6491 16.25 16.375 16.25H22V14.375C22 13.3881 21.2375 12.5793 20.2696 12.5055C20.2232 12.5165 20.1748 12.5223 20.125 12.5223C20.0675 12.5223 20.0118 12.5145 19.959 12.5H8.875C7.83947 12.5 7 13.3395 7 14.375V23.125C7 24.1605 7.83947 25 8.875 25H20.125C20.9414 25 21.6359 24.4782 21.8933 23.75ZM9.5 11.25H19.5V10C19.5 7.23858 17.2614 5 14.5 5C11.7386 5 9.5 7.23858 9.5 10V11.25ZM27 20.625V19.375C27 18.3395 26.1605 17.5 25.125 17.5H16.375C15.3395 17.5 14.5 18.3395 14.5 19.375V20.625C14.5 21.6605 15.3395 22.5 16.375 22.5H25.125C26.1605 22.5 27 21.6605 27 20.625ZM17.375 19.75H18.625C18.9702 19.75 19.25 20.0298 19.25 20.375V19.625C19.25 19.9702 18.9702 20.25 18.625 20.25H17.375C17.0298 20.25 16.75 19.9702 16.75 19.625V20.375C16.75 20.0298 17.0298 19.75 17.375 19.75ZM22.875 19.75H24.125C24.4702 19.75 24.75 20.0298 24.75 20.375V19.625C24.75 19.9702 24.4702 20.25 24.125 20.25H22.875C22.5298 20.25 22.25 19.9702 22.25 19.625V20.375C22.25 20.0298 22.5298 19.75 22.875 19.75Z" fill="#939393" stroke="#939393"/>
</g>
</svg>
