<svg width="36" height="36" viewBox="0 0 36 36" fill="none" xmlns="http://www.w3.org/2000/svg">
<path d="M31.374 16.8706H30.6148V15.7458C30.6131 15.5588 30.5648 15.3752 30.4742 15.2116C31.2859 13.9293 31.6281 12.4053 31.4425 10.8991C31.2569 9.39284 30.555 7.99748 29.4564 6.95054C28.5502 6.06485 27.4129 5.45219 26.1747 5.1827C24.9366 4.91321 23.6475 4.99777 22.4552 5.42671C21.2628 5.85565 20.2154 6.61164 19.4326 7.60813C18.6499 8.60463 18.1635 9.80137 18.0292 11.0614C17.9078 12.2857 18.1339 13.5194 18.6816 14.6211H18.5972C18.1521 14.6209 17.7132 14.7251 17.3157 14.9253C16.9182 15.1255 16.5732 15.4162 16.3084 15.774C16.0436 15.4162 15.6986 15.1255 15.3011 14.9253C14.9036 14.7251 14.4647 14.6209 14.0196 14.6211H3.13796C2.83967 14.6211 2.55359 14.7396 2.34267 14.9505C2.13174 15.1615 2.01325 15.4475 2.01325 15.7458V16.8706H1.24281C1.08034 16.8698 0.919317 16.9011 0.768931 16.9626C0.618545 17.0241 0.481744 17.1146 0.366337 17.2289C0.250931 17.3433 0.15918 17.4793 0.0963241 17.6291C0.0334678 17.7789 0.000736824 17.9397 0 18.1021L0 33.4264C0.00297074 33.7536 0.1354 34.0662 0.368312 34.296C0.601225 34.5257 0.915657 34.6539 1.24281 34.6524H12.788C13.2287 34.6549 13.6631 34.7567 14.059 34.9504L16.061 35.9345C16.138 35.9723 16.2226 35.9919 16.3084 35.9919C16.3942 35.9919 16.4788 35.9723 16.5559 35.9345L18.5578 34.9504C18.9537 34.7567 19.3881 34.6549 19.8288 34.6524H31.374C31.7012 34.6539 32.0156 34.5257 32.2485 34.296C32.4814 34.0662 32.6139 33.7536 32.6168 33.4264V18.1021C32.6161 17.9397 32.5834 17.7789 32.5205 17.6291C32.4576 17.4793 32.3659 17.3433 32.2505 17.2289C32.1351 17.1146 31.9983 17.0241 31.8479 16.9626C31.6975 16.9011 31.5365 16.8698 31.374 16.8706ZM19.1483 11.1739C19.271 10.1287 19.6831 9.13846 20.3382 8.31481C20.9932 7.49115 21.8653 6.86676 22.856 6.51195C23.8468 6.15715 24.917 6.08602 25.946 6.30658C26.975 6.52714 27.922 7.03063 28.6803 7.76034C29.2081 8.26345 29.6297 8.86716 29.9204 9.53585C30.211 10.2045 30.3648 10.9247 30.3727 11.6538C30.3805 12.3828 30.2423 13.1061 29.9661 13.7809C29.69 14.4557 29.2814 15.0684 28.7647 15.5828C27.8088 16.5191 27.0697 17.6535 26.5996 18.9063H25.3062V14.0588H26.9932C27.1424 14.0588 27.2854 13.9995 27.3909 13.8941C27.4963 13.7886 27.5556 13.6456 27.5556 13.4964C27.5556 13.3473 27.4963 13.2042 27.3909 13.0988C27.2854 12.9933 27.1424 12.934 26.9932 12.934H22.4944C22.3452 12.934 22.2022 12.9933 22.0967 13.0988C21.9913 13.2042 21.932 13.3473 21.932 13.4964C21.932 13.6456 21.9913 13.7886 22.0967 13.8941C22.2022 13.9995 22.3452 14.0588 22.4944 14.0588H24.1814V18.9063H22.8936C22.4113 17.6369 21.6613 16.4861 20.6948 15.5321C20.1342 14.9629 19.7052 14.2776 19.438 13.5246C19.1708 12.7716 19.0719 11.9692 19.1483 11.1739ZM23.6472 21.9655H25.8966C25.8982 22.1107 25.8705 22.2546 25.8151 22.3888C25.7598 22.523 25.678 22.6446 25.5746 22.7465C25.4712 22.8483 25.3483 22.9283 25.2133 22.9815C25.0782 23.0348 24.9339 23.0603 24.7888 23.0565H24.6988C24.557 23.0565 24.4166 23.0286 24.2856 22.9743C24.1546 22.9201 24.0356 22.8405 23.9353 22.7403C23.8351 22.64 23.7555 22.521 23.7013 22.39C23.647 22.259 23.6191 22.1186 23.6191 21.9768L23.6472 21.9655ZM26.459 20.8408H23.0567V20.031H26.4309L26.459 20.8408ZM18.5972 15.7458H19.3845C19.5431 15.9421 19.7121 16.1299 19.8906 16.3082C20.7875 17.1853 21.4739 18.2544 21.8983 19.4349L21.932 19.5361V21.3807C21.932 21.5298 21.9913 21.6729 22.0967 21.7783C22.2022 21.8838 22.3452 21.943 22.4944 21.943C22.4906 22.2352 22.5449 22.5251 22.6539 22.7961C22.763 23.0672 22.9247 23.3139 23.1297 23.522C23.3347 23.7301 23.5789 23.8956 23.8482 24.0087C24.1176 24.1219 24.4067 24.1805 24.6988 24.1812H24.7888C25.373 24.1797 25.9328 23.947 26.3459 23.5339C26.759 23.1208 26.9917 22.561 26.9932 21.9768C27.1424 21.9768 27.2854 21.9175 27.3909 21.8121C27.4963 21.7066 27.5556 21.5636 27.5556 21.4144V19.5586V19.4968C27.9528 18.3486 28.6067 17.3061 29.4676 16.4488V31.4919H19.272C18.7438 31.4936 18.2228 31.6147 17.7481 31.8462L16.8708 32.2792V17.4329C16.8707 17.208 16.9156 16.9854 17.0029 16.7781C17.0901 16.5708 17.2179 16.383 17.3787 16.2258C17.5396 16.0687 17.7302 15.9452 17.9395 15.8628C18.1488 15.7804 18.3724 15.7406 18.5972 15.7458ZM14.0196 15.7458C14.2445 15.7406 14.4681 15.7804 14.6773 15.8628C14.8866 15.9452 15.0772 16.0687 15.2381 16.2258C15.3989 16.383 15.5267 16.5708 15.614 16.7781C15.7012 16.9854 15.7461 17.208 15.7461 17.4329V32.2792L14.8688 31.8462C14.394 31.6147 13.873 31.4936 13.3448 31.4919H3.12672V15.7458H14.0196ZM31.4921 33.4264C31.4914 33.441 31.4878 33.4552 31.4814 33.4683C31.475 33.4814 31.466 33.493 31.4549 33.5025C31.4439 33.512 31.431 33.5191 31.4171 33.5234C31.4031 33.5278 31.3885 33.5292 31.374 33.5276H19.8288C19.2169 33.5306 18.6134 33.6709 18.063 33.9382L16.3084 34.8042L14.5539 33.9382C14.0034 33.6709 13.4 33.5306 12.788 33.5276H1.24281C1.22833 33.5292 1.21368 33.5278 1.19977 33.5234C1.18586 33.5191 1.17297 33.512 1.16191 33.5025C1.15085 33.493 1.14185 33.4814 1.13545 33.4683C1.12905 33.4552 1.1254 33.441 1.12472 33.4264V18.1021C1.12544 18.0873 1.12907 18.0729 1.1354 18.0595C1.14172 18.0461 1.15063 18.0341 1.1616 18.0242C1.17257 18.0143 1.18539 18.0066 1.19932 18.0016C1.21326 17.9967 1.22804 17.9945 1.24281 17.9953H2.002V31.4919C2.002 31.7902 2.12049 32.0763 2.33142 32.2872C2.54235 32.4981 2.82842 32.6166 3.12672 32.6166H13.3448C13.7018 32.6178 14.0537 32.7005 14.3739 32.8584L16.061 33.6851H16.0891C16.1574 33.7184 16.2324 33.7357 16.3084 33.7357C16.3844 33.7357 16.4594 33.7184 16.5277 33.6851H16.5559L18.2429 32.8584C18.5631 32.7005 18.9151 32.6178 19.272 32.6166H29.4789C29.7772 32.6166 30.0632 32.4981 30.2742 32.2872C30.4851 32.0763 30.6036 31.7902 30.6036 31.4919V17.9953H31.3628C31.3775 17.9945 31.3923 17.9967 31.4063 18.0016C31.4202 18.0066 31.433 18.0143 31.444 18.0242C31.455 18.0341 31.4639 18.0461 31.4702 18.0595C31.4765 18.0729 31.4801 18.0873 31.4809 18.1021L31.4921 33.4264Z" fill="white"/>
<path d="M24.744 3.6722C24.8931 3.6722 25.0362 3.61296 25.1416 3.50749C25.2471 3.40203 25.3064 3.25899 25.3064 3.10985V0.562359C25.3064 0.413212 25.2471 0.270174 25.1416 0.164711C25.0362 0.0592484 24.8931 0 24.744 0C24.5949 0 24.4518 0.0592484 24.3464 0.164711C24.2409 0.270174 24.1816 0.413212 24.1816 0.562359V3.10985C24.1816 3.25899 24.2409 3.40203 24.3464 3.50749C24.4518 3.61296 24.5949 3.6722 24.744 3.6722Z" fill="white"/>
<path d="M30.1253 5.67998C30.2084 5.67943 30.2903 5.66049 30.3652 5.62451C30.44 5.58853 30.506 5.53642 30.5583 5.47191L32.1554 3.52614C32.2012 3.46758 32.2349 3.40053 32.2546 3.32885C32.2743 3.25717 32.2796 3.1823 32.2702 3.10857C32.2608 3.03483 32.2369 2.96369 32.1998 2.89926C32.1627 2.83484 32.1132 2.7784 32.0542 2.73322C31.9391 2.63999 31.7918 2.59596 31.6444 2.6107C31.4969 2.62544 31.3613 2.69776 31.2669 2.81195L29.6867 4.76333C29.6196 4.84598 29.5774 4.94595 29.5649 5.05163C29.5524 5.15732 29.5702 5.26437 29.6161 5.36037C29.6621 5.45636 29.7343 5.53735 29.8244 5.59393C29.9146 5.6505 30.0189 5.68034 30.1253 5.67998Z" fill="white"/>
<path d="M35.3272 9.21168L32.8866 9.65594C32.7374 9.66936 32.5997 9.74149 32.5038 9.85644C32.4078 9.97139 32.3614 10.1198 32.3748 10.2689C32.3883 10.4181 32.4604 10.5558 32.5753 10.6517C32.6903 10.7477 32.8387 10.7941 32.9878 10.7807H33.089L35.5297 10.3364C35.6788 10.3095 35.8112 10.2246 35.8977 10.1001C35.9841 9.97566 36.0176 9.82196 35.9908 9.67281C35.964 9.52367 35.879 9.39129 35.7545 9.30481C35.6301 9.21833 35.4764 9.18483 35.3272 9.21168Z" fill="white"/>
<path d="M13.958 10.3193L16.3986 10.7636H16.4998C16.649 10.777 16.7973 10.7306 16.9123 10.6346C17.0273 10.5387 17.0994 10.401 17.1128 10.2518C17.1262 10.1027 17.0799 9.9543 16.9839 9.83935C16.8879 9.7244 16.7502 9.65227 16.6011 9.63885L14.1604 9.19459C14.0113 9.16774 13.8576 9.20124 13.7331 9.28772C13.6087 9.3742 13.5237 9.50657 13.4968 9.65572C13.47 9.80487 13.5035 9.95857 13.59 10.083C13.6764 10.2075 13.8088 10.2925 13.958 10.3193Z" fill="white"/>
<path d="M18.9292 5.47171C18.9815 5.53622 19.0475 5.58834 19.1224 5.62432C19.1972 5.66029 19.2791 5.67924 19.3622 5.67979C19.4686 5.68015 19.573 5.65031 19.6631 5.59373C19.7532 5.53716 19.8255 5.45617 19.8714 5.36017C19.9173 5.26418 19.9351 5.15712 19.9226 5.05144C19.9101 4.94575 19.8679 4.84578 19.8008 4.76314L18.2037 2.81175C18.1099 2.70242 17.9776 2.63329 17.8342 2.61864C17.6909 2.60399 17.5474 2.64493 17.4333 2.73302C17.3755 2.77943 17.3275 2.8368 17.292 2.90183C17.2565 2.96686 17.2341 3.03827 17.2263 3.11195C17.2185 3.18564 17.2253 3.26014 17.2463 3.33119C17.2674 3.40224 17.3022 3.46843 17.349 3.52595L18.9292 5.47171Z" fill="white"/>
</svg>
