<svg width="35" height="35" viewBox="0 0 35 35" fill="none" xmlns="http://www.w3.org/2000/svg">
<path d="M32.9508 11.7609V11.1435H32.9943C33.6045 11.1435 34.1 10.6498 34.1 10.0391V8.89133C34.1 8.28067 33.6045 7.78698 32.9943 7.78698H31.9682L17.7297 0.953168C17.7296 0.953113 17.7295 0.953059 17.7294 0.953004C17.5843 0.88233 17.4145 0.882333 17.2693 0.953009C17.2692 0.953061 17.2691 0.953114 17.269 0.953167L3.03197 7.78698H2.0045C1.39557 7.78698 0.900191 8.28076 0.900191 8.89133V10.0391C0.900191 10.6497 1.39557 11.1435 2.0045 11.1435H2.04795L2.04778 11.7608V11.7609C2.04778 12.5032 2.52837 13.1316 3.19555 13.3541V28.5329C2.52837 28.7554 2.04778 29.3837 2.04778 30.1261V30.8286C1.38196 31.0511 0.9 31.6793 0.9 32.4217V33.5696C0.9 33.8632 1.13868 34.1 1.43043 34.1H33.5681C33.8611 34.1 34.1 33.8634 34.1 33.5696V32.4217C34.1 31.6793 33.6179 31.051 32.9508 30.8285V30.1261C32.9508 29.3838 32.4702 28.7554 31.803 28.5329V13.3541C32.4702 13.1316 32.9508 12.5032 32.9508 11.7609ZM2.00436 8.84786H32.9943C33.018 8.84786 33.0378 8.86765 33.0378 8.89133V10.0392C33.0378 10.0628 33.018 10.0826 32.9943 10.0826H2.00436C1.98199 10.0826 1.96233 10.0641 1.96233 10.0392V8.89133C1.96233 8.86634 1.98199 8.84786 2.00436 8.84786ZM5.48261 7.78698L17.4994 2.01933L29.5161 7.78698H5.48261ZM31.89 11.7609C31.89 12.1016 31.6134 12.3782 31.2726 12.3782H26.6831C26.341 12.3782 26.0657 12.1018 26.0657 11.7609V11.1435H31.89V11.7609ZM29.5075 13.4392H30.7422V28.4477H29.5075V13.4392ZM31.89 30.126V30.7433H26.0657V30.126C26.0657 29.7851 26.341 29.5086 26.683 29.5086H31.2726C31.6134 29.5086 31.89 29.7852 31.89 30.126ZM1.96241 32.4216C1.96241 32.0807 2.23771 31.8042 2.57976 31.8042H32.4204C32.7611 31.8042 33.0377 32.0808 33.0377 32.4216V33.039H1.96241V32.4216ZM3.10875 30.126C3.10875 29.7852 3.38536 29.5086 3.7261 29.5086H8.31713C8.65787 29.5086 8.93448 29.7852 8.93448 30.126V30.7433H3.10875V30.126ZM5.49123 28.4476H4.25653V13.4391H5.49123V28.4476ZM3.10875 11.7609V11.1435H8.93455V11.7609C8.93455 12.1016 8.65794 12.3782 8.3172 12.3782H3.7261C3.38536 12.3782 3.10875 12.1016 3.10875 11.7609ZM9.99687 11.7609V11.1435H25.0033V11.7609C25.0033 12.5033 25.4853 13.1315 26.1511 13.354V28.5329C25.4853 28.7554 25.0033 29.3837 25.0033 30.1261V30.7435H9.99687V30.1261C9.99687 29.3836 9.51482 28.7553 8.84766 28.5329V13.3541C9.51482 13.1317 9.99687 12.5034 9.99687 11.7609ZM27.2119 28.4476V13.4391H28.4481V28.4476H27.2119ZM7.78674 13.4391V28.4476H6.55204V13.4391H7.78674Z" fill="#545454" stroke="#545454" stroke-width="0.2"/>
<path d="M16.4546 23.872C16.4546 23.488 16.484 23.128 16.5426 22.792C16.6066 22.456 16.724 22.136 16.8946 21.832C17.0386 21.544 17.2066 21.312 17.3986 21.136C17.596 20.9547 17.8093 20.7787 18.0386 20.608C18.2733 20.432 18.5186 20.208 18.7746 19.936C18.988 19.7013 19.1293 19.464 19.1986 19.224C19.2733 18.984 19.3106 18.7253 19.3106 18.448C19.3106 18.2453 19.2866 18.056 19.2386 17.88C19.1906 17.704 19.1106 17.552 18.9986 17.424C18.828 17.2107 18.612 17.0613 18.3506 16.976C18.0893 16.8853 17.8173 16.84 17.5346 16.84C17.2786 16.84 17.0333 16.8747 16.7986 16.944C16.5693 17.0133 16.3773 17.12 16.2226 17.264C16.0573 17.4027 15.9346 17.576 15.8546 17.784C15.78 17.9867 15.7453 18.208 15.7506 18.448H13.9906C14.0333 17.9467 14.1613 17.4773 14.3746 17.04C14.588 16.6027 14.876 16.248 15.2386 15.976C15.548 15.7307 15.9 15.5493 16.2946 15.432C16.6893 15.3093 17.084 15.248 17.4786 15.248C18.044 15.248 18.5773 15.336 19.0786 15.512C19.5853 15.688 20.0066 15.9733 20.3426 16.368C20.588 16.6453 20.772 16.9627 20.8946 17.32C21.0226 17.672 21.0866 18.0373 21.0866 18.416C21.0866 18.9227 20.9773 19.392 20.7586 19.824C20.5453 20.256 20.2706 20.6507 19.9346 21.008C19.7586 21.1947 19.58 21.3653 19.3986 21.52C19.2173 21.6693 19.0493 21.816 18.8946 21.96C18.74 22.104 18.612 22.2613 18.5106 22.432C18.3666 22.6773 18.284 22.8987 18.2626 23.096C18.2413 23.288 18.2306 23.5467 18.2306 23.872H16.4546ZM16.4626 27V25.064H18.2306V27H16.4626Z" fill="#545454"/>
</svg>
