<svg width="45" height="45" viewBox="0 0 45 45" fill="none" xmlns="http://www.w3.org/2000/svg">
<path d="M36.1597 35.4135C35.7157 35.4135 35.3561 35.7731 35.3561 36.217V42.5895C35.3561 43.0335 34.9965 43.3931 34.5525 43.3931H2.40969C1.96571 43.3931 1.60611 43.0335 1.60611 42.5895V2.41097C1.60611 1.967 1.96571 1.6074 2.40969 1.6074H11.2492V3.21454H4.01734C3.57337 3.21454 3.21377 3.57414 3.21377 4.01811V36.9643C3.23587 38.0089 4.79679 38.033 4.82091 36.9643V4.82143H11.2495V5.625C11.2495 6.95489 12.3303 8.03572 13.6602 8.03572H23.3031C24.6329 8.03572 25.7138 6.95489 25.7138 5.625V4.82143H32.1423V8.83929C32.1564 9.89799 33.7354 9.89198 33.7495 8.83929V4.01786C33.7495 3.57388 33.3899 3.21429 32.9459 3.21429H25.714V1.60714H34.5536C34.9975 1.60714 35.3571 1.96674 35.3571 2.41071V8.83929C35.3692 9.89599 36.9502 9.89198 36.9643 8.83929V2.41071C36.9643 1.08082 35.8835 0 34.5536 0H2.41071C1.08082 0 0 1.08082 0 2.41071V42.5893C0 43.9192 1.08082 45 2.41071 45H34.5536C35.8835 45 36.9643 43.9192 36.9643 42.5893V36.2168C36.9643 35.7728 36.6047 35.4132 36.1607 35.4132L36.1597 35.4135ZM24.1059 5.625C24.1059 6.06897 23.7463 6.42857 23.3023 6.42857H13.6594C13.2155 6.42857 12.8559 6.06897 12.8559 5.625V1.60714H24.1059V5.625Z" fill="#172052"/>
<path d="M3.21364 40.9826C3.21364 41.4266 3.57323 41.7862 4.01721 41.7862H32.9458C33.3898 41.7862 33.7494 41.4266 33.7494 40.9826V34.554C33.7273 33.4973 32.1623 33.4953 32.1422 34.554V40.1793H4.01695C3.57298 40.1793 3.21364 40.5386 3.21364 40.9826Z" fill="#172052"/>
<path d="M42.5882 12.0542H29.731C28.4011 12.0542 27.3203 13.135 27.3203 14.4649V28.9292C27.3203 30.2591 28.4011 31.3399 29.731 31.3399H35.8263L40.4127 35.9263C40.8889 36.4326 41.8069 36.0529 41.7849 35.3578V31.3399H42.5884C43.9183 31.3399 44.9991 30.2591 44.9991 28.9292V14.4649C44.9991 13.135 43.9181 12.0542 42.5882 12.0542ZM43.3917 28.9289C43.3917 29.3729 43.0321 29.7325 42.5882 29.7325H40.981C40.5371 29.7325 40.1775 30.0921 40.1775 30.5361V33.4169L36.7281 29.9676C36.5775 29.8169 36.3726 29.7325 36.1596 29.7325H29.731C29.2871 29.7325 28.9275 29.373 28.9275 28.929V14.4647C28.9275 14.0207 29.2871 13.6611 29.731 13.6611H42.5882C43.0321 13.6611 43.3917 14.0207 43.3917 14.4647V28.9289Z" fill="#172052"/>
<path d="M36.1595 15.2683C33.9436 15.2683 32.1416 17.0703 32.1416 19.2862C32.1416 19.7301 32.5012 20.0897 32.9452 20.0897C33.3891 20.0897 33.7487 19.7301 33.7487 19.2862C33.7487 17.9563 34.8296 16.8755 36.1595 16.8755C38.8333 16.8755 39.4842 20.6563 36.9731 21.5563C35.9907 21.9078 35.3559 22.7737 35.3559 23.7641V24.9112C35.372 25.9659 36.9449 25.9699 36.963 24.9112C37.0233 24.2081 36.7039 23.3543 37.5135 23.069C41.7061 21.5322 40.6333 15.3023 36.1595 15.2683Z" fill="#172052"/>
<path d="M36.1597 26.5178C35.103 26.5359 35.103 28.1069 36.1597 28.125C37.2164 28.1069 37.2164 26.5359 36.1597 26.5178Z" fill="#172052"/>
<path d="M12.0535 13.6606H24.3403C24.7843 13.6606 25.1439 13.301 25.1439 12.857C25.1439 12.4131 24.7843 12.0535 24.3403 12.0535H12.0535C11.0008 12.0695 10.9948 13.6425 12.0535 13.6606Z" fill="#172052"/>
<path d="M8.0352 13.6606C9.09191 13.6425 9.09191 12.0716 8.0352 12.0535C6.9785 12.0715 6.9785 13.6425 8.0352 13.6606Z" fill="#172052"/>
<path d="M12.0535 20.0893H24.1073C24.5513 20.0893 24.9109 19.7297 24.9109 19.2857C24.9109 18.8418 24.5513 18.4822 24.1073 18.4822H12.0535C11.0008 18.4982 10.9948 20.0712 12.0535 20.0893Z" fill="#172052"/>
<path d="M8.0352 20.0893C9.09191 20.0712 9.09191 18.5003 8.0352 18.4822C6.9785 18.5003 6.9785 20.0712 8.0352 20.0893Z" fill="#172052"/>
<path d="M12.0535 26.5178H24.1073C24.5513 26.5178 24.9109 26.1582 24.9109 25.7142C24.9109 25.2702 24.5513 24.9106 24.1073 24.9106H12.0535C11.0008 24.9267 10.9948 26.4997 12.0535 26.5178Z" fill="#172052"/>
<path d="M8.0352 26.5178C9.09191 26.4997 9.09191 24.9287 8.0352 24.9106C6.9785 24.9287 6.9785 26.4997 8.0352 26.5178Z" fill="#172052"/>
<path d="M25.1194 31.3398H12.0535C11.0008 31.3559 10.9948 32.9289 12.0535 32.947H25.1194C26.1721 32.9309 26.1781 31.3579 25.1194 31.3398Z" fill="#172052"/>
<path d="M8.0352 32.9465C9.09191 32.9284 9.09191 31.3575 8.0352 31.3394C6.9785 31.3574 6.9785 32.9284 8.0352 32.9465Z" fill="#172052"/>
</svg>
