<svg width="43" height="48" viewBox="0 0 43 48" fill="none" xmlns="http://www.w3.org/2000/svg">
<path d="M3.53646 17.9771V47.04C3.53646 47.5702 3.9609 48 4.48544 48H38.5136C39.0382 48 39.4626 47.5702 39.4626 47.04V17.9774C41.5057 17.3194 43 15.4042 43 13.1222V9.16781C43 9.05215 42.9729 8.9407 42.9333 8.83348C42.9212 8.8006 42.9054 8.77178 42.8899 8.74072C42.8723 8.70521 42.8617 8.66666 42.8397 8.63344L37.4025 0.425625C37.2264 0.159844 36.9308 0 36.6138 0H6.38619C6.06925 0 5.77362 0.159844 5.59753 0.425625L0.160327 8.63344C0.138259 8.66672 0.127659 8.70539 0.109993 8.74096C0.0945279 8.77184 0.0788891 8.80055 0.0667256 8.8333C0.0270493 8.94059 0 9.05209 0 9.16781V13.1222C9.48986e-08 15.4039 1.4938 17.3188 3.53646 17.9771ZM19.1475 24.9802C19.1475 23.6677 20.203 22.5998 21.4995 22.5998C22.797 22.5998 23.8525 23.6677 23.8525 24.9802C23.8525 26.2922 22.797 27.36 21.4995 27.36C20.203 27.36 19.1475 26.2922 19.1475 24.9802ZM24.7228 29.28C25.8024 29.28 26.681 30.1683 26.681 31.2605V32.1375H16.3181V31.2605C16.3181 30.1683 17.1967 29.28 18.2763 29.28H24.7228ZM25.0173 27.3901C25.4795 26.7021 25.7505 25.8728 25.7505 24.9802C25.7505 22.6087 23.8433 20.6798 21.4995 20.6798C19.1558 20.6798 17.2495 22.6087 17.2495 24.9802C17.2495 25.8728 17.5204 26.7021 17.9824 27.3901C15.9957 27.545 14.4201 29.2117 14.4201 31.2605V32.1375H5.43443V18.2167C6.96998 18.1015 8.31892 17.2991 9.16921 16.103C10.0885 17.3962 11.588 18.24 13.2793 18.24C14.9706 18.24 16.4701 17.3962 17.3894 16.103C18.3088 17.3962 19.8082 18.24 21.4995 18.24C23.1908 18.24 24.6903 17.3962 25.6096 16.103C26.529 17.3962 28.0285 18.24 29.7198 18.24C31.4111 18.24 32.9105 17.3962 33.8299 16.103C34.68 17.2989 36.0293 18.1012 37.5646 18.2166V32.1375H28.5789V31.2605C28.5789 29.2119 27.0038 27.5454 25.0173 27.3901ZM5.43443 46.08V34.0575H15.3691H27.6299H37.5646V46.08H5.43443ZM37.9409 16.32C36.1977 16.32 34.7789 14.8856 34.7789 13.1222C34.7789 12.592 34.3544 12.1622 33.8299 12.1622C33.3053 12.1622 32.8809 12.592 32.8809 13.1222C32.8809 14.8856 31.463 16.32 29.7198 16.32C27.9766 16.32 26.5586 14.8856 26.5586 13.1222C26.5586 12.592 26.1342 12.1622 25.6096 12.1622C25.0851 12.1622 24.6607 12.592 24.6607 13.1222C24.6607 14.8856 23.2427 16.32 21.4995 16.32C19.7563 16.32 18.3384 14.8856 18.3384 13.1222C18.3384 12.592 17.914 12.1622 17.3894 12.1622C16.8649 12.1622 16.4404 12.592 16.4404 13.1222C16.4404 14.8856 15.0225 16.32 13.2793 16.32C11.5361 16.32 10.1182 14.8856 10.1182 13.1222C10.1182 12.592 9.69374 12.1622 9.16921 12.1622C8.64467 12.1622 8.22022 12.592 8.22022 13.1222C8.22022 14.8856 6.8023 16.32 5.0591 16.32C3.31589 16.32 1.89797 14.8856 1.89797 13.1222V10.1278H41.102V13.1222C41.102 14.8856 39.6841 16.32 37.9409 16.32ZM6.8922 1.92H36.1078L40.2727 8.20781H2.72729L6.8922 1.92Z" fill="#172052"/>
</svg>
