<svg width="112" height="102" viewBox="0 0 112 102" fill="none" xmlns="http://www.w3.org/2000/svg">
<path d="M44.8005 62.2001H67.2005V28.6001H84.0005L56.0005 0.600098L28.0005 28.6001H44.8005V62.2001ZM108.293 70.7793C107.117 69.5249 99.2717 61.1305 97.0317 58.9409C95.462 57.4362 93.3709 56.5973 91.1965 56.6001H81.3573L98.5157 73.3665H78.6693C78.3996 73.3615 78.1333 73.4278 77.8973 73.5585C77.6614 73.6893 77.4641 73.88 77.3253 74.1113L72.7557 84.6001H39.2453L34.6757 74.1113C34.536 73.8807 34.3386 73.6907 34.1028 73.56C33.867 73.4294 33.6012 73.3627 33.3317 73.3665H13.4853L30.6381 56.6001H20.8045C18.5813 56.6001 16.4589 57.4905 14.9693 58.9409C12.7293 61.1361 4.88368 69.5305 3.70768 70.7793C0.969279 73.6969 -0.537121 76.0209 0.179679 78.8937L3.32128 96.1081C4.03808 98.9865 7.19088 101.35 10.3325 101.35H101.68C104.821 101.35 107.974 98.9865 108.691 96.1081L111.832 78.8937C112.538 76.0209 111.037 73.6969 108.293 70.7793Z" fill="#172052"/>
</svg>
